<svg version="1.1" xmlns="http://www.w3.org/2000/svg" xmlns:xlink="http://www.w3.org/1999/xlink" width="400" height="400" viewBox="0 0 400 400"><defs/><g><path fill="none" stroke="rgb(255,0,0)" paint-order="fill stroke markers" d=" M 100 50 L 200 50" stroke-opacity="1" stroke-linecap="round" stroke-miterlimit="10" stroke-width="5" stroke-dasharray=""/><path fill="none" stroke="rgb(255,0,0)" paint-order="fill stroke markers" d=" M 100 50 L 58 100" stroke-opacity="1" stroke-linecap="round" stroke-miterlimit="10" stroke-width="5" stroke-dasharray=""/><path fill="none" stroke="rgb(255,0,0)" paint-order="fill stroke markers" d=" M 200 50 L 242 100" stroke-opacity="1" stroke-linecap="round" stroke-miterlimit="10" stroke-width="5" stroke-dasharray=""/><path fill="none" stroke="rgb(255,0,0)" paint-order="fill stroke markers" d=" M 120 50 L 90 100" stroke-opacity="1" stroke-linecap="round" stroke-miterlimit="10" stroke-width="5" stroke-dasharray=""/><path fill="none" stroke="rgb(255,0,0)" paint-order="fill stroke markers" d=" M 180 50 L 210 100" stroke-opacity="1" stroke-linecap="round" stroke-miterlimit="10" stroke-width="5" stroke-dasharray=""/><path fill="none" stroke="rgb(255,0,0)" paint-order="fill stroke markers" d=" M 240 100 L 60 100 L 150 250 Z" stroke-opacity="1" stroke-linecap="round" stroke-miterlimit="10" stroke-width="5" stroke-dasharray=""/><path fill="none" stroke="rgb(255,0,0)" paint-order="fill stroke markers" d=" M 90 100 L 150 250" stroke-opacity="1" stroke-linecap="round" stroke-miterlimit="10" stroke-width="5" stroke-dasharray=""/><path fill="none" stroke="rgb(255,0,0)" paint-order="fill stroke markers" d=" M 210 100 L 150 250" stroke-opacity="1" stroke-linecap="round" stroke-miterlimit="10" stroke-width="5" stroke-dasharray=""/><path fill="none" stroke="rgb(255,0,0)" paint-order="fill stroke markers" d=" M 100 300 C 100 272.38576251 122.38576251 250 150 250 C 177.61423749 250 200 272.38576251 200 300 C 200 327.61423749 177.61423749 350 150 350 C 122.38576251 350 100 327.61423749 100 300" stroke-opacity="1" stroke-linecap="round" stroke-miterlimit="10" stroke-width="8" stroke-dasharray=""/><path fill="none" stroke="rgb(0,0,0)" paint-order="fill stroke markers" d=" M 255 65 L 313 55 L 308 75 Z" stroke-opacity="1" stroke-linecap="round" stroke-miterlimit="10" stroke-width="5" stroke-dasharray=""/><path fill="none" stroke="rgb(0,0,0)" paint-order="fill stroke markers" d=" M 270 85 L 315 115 L 325 100 Z" stroke-opacity="1" stroke-linecap="round" stroke-miterlimit="10" stroke-width="5" stroke-dasharray=""/><path fill="none" stroke="rgb(0,0,0)" paint-order="fill stroke markers" d=" M 260 97 L 300 158 L 325 150 Z" stroke-opacity="1" stroke-linecap="round" stroke-miterlimit="10" stroke-width="5" stroke-dasharray=""/></g></svg>